# This file is brought to you by Roblox Corporation
# Generated by Roblox Studio

mtllib a.mtl

g Battleaxe1

v 774.278 0.208515 321.965 
v 774.324 0.208515 321.796 
v 774.379 5.74818 321.901 
v 774.379 5.70074 321.859 
v 774.379 5.74818 321.859 
v 774.379 5.70074 321.901 
v 774.358 5.70074 321.823 
v 774.358 5.74818 321.937 
v 774.358 5.70074 321.937 
v 774.301 6.47031 321.88 
v 774.358 5.74818 321.823 
v 774.288 5.634 321.83 
v 774.38 4.94945 321.859 
v 774.354 4.9037 321.895 
v 774.354 4.9037 321.866 
v 774.34 4.9037 321.841 
v 774.38 4.94945 321.902 
v 774.359 4.94945 321.822 
v 774.34 4.9037 321.919 
v 774.359 4.94945 321.938 
v 774.322 4.94945 321.96 
v 774.315 4.9037 321.934 
v 774.287 4.9037 321.827 
v 774.301 5.13578 320.918 
v 774.301 5.45135 320.865 
v 774.301 5.86422 320.973 
v 774.28 5.99282 321.245 
v 774.301 4.73217 321.412 
v 774.292 4.51184 321.518 
v 774.322 4.86251 321.326 
v 774.301 4.7625 321.289 
v 774.322 4.84841 321.236 
v 774.301 4.77012 321.336 
v 774.322 4.84823 321.419 
v 774.301 4.75447 321.144 
v 774.301 4.65116 321.251 
v 774.322 5.16541 321.038 
v 774.301 4.75688 321.389 
v 774.301 5.13578 320.918 
v 774.322 5.45265 320.986 
v 774.301 5.45135 320.865 
v 774.301 5.68014 320.903 
v 774.322 5.67507 321.021 
v 774.301 5.86422 320.973 
v 774.322 5.85301 321.087 
v 774.301 6.0205 321.149 
v 774.322 5.99282 321.245 
v 774.301 6.14304 321.401 
v 774.301 4.73217 321.412 
v 774.322 4.81819 321.551 
v 774.317 4.60848 321.551 
v 774.31 4.51184 321.518 
v 774.301 4.43347 321.457 
v 774.302 4.65116 322.51 
v 774.302 4.7625 322.472 
v 774.302 4.75447 322.617 
v 774.323 4.84841 322.526 
v 774.323 4.86251 322.436 
v 774.323 5.16541 322.723 
v 774.302 4.77012 322.425 
v 774.302 5.13578 322.843 
v 774.323 4.84823 322.342 
v 774.302 4.75688 322.372 
v 774.323 5.45265 322.776 
v 774.302 5.45135 322.896 
v 774.302 5.68014 322.858 
v 774.323 5.67507 322.74 
v 774.302 5.86422 322.789 
v 774.323 5.85301 322.675 
v 774.302 6.0205 322.63 
v 774.323 5.99282 322.514 
v 774.302 6.14304 322.359 
v 774.302 4.73217 322.349 
v 774.323 4.81819 322.21 
v 774.318 4.60848 322.21 
v 774.311 4.51184 322.244 
v 774.302 4.43347 322.305 
v 774.28 5.58257 321.327 
v 774.28 5.42953 321.801 
v 774.28 5.81642 321.211 
v 774.322 4.97929 321.638 
v 774.322 5.48657 321.516 
v 774.322 5.1115 321.738 
v 774.322 5.44054 321.687 
v 774.322 5.13377 321.801 
v 774.322 5.42953 321.801 
v 774.322 5.58257 321.327 
v 774.322 4.81819 321.551 
v 774.322 4.84823 321.419 
v 774.322 4.86251 321.326 
v 774.322 5.16541 321.038 
v 774.322 4.84841 321.236 
v 774.322 5.45265 320.986 
v 774.322 5.69254 321.224 
v 774.322 5.67507 321.021 
v 774.322 5.85301 321.087 
v 774.322 5.81642 321.211 
v 774.322 5.99282 321.245 
v 774.323 5.58257 322.434 
v 774.323 4.97929 322.124 
v 774.323 5.48657 322.246 
v 774.323 5.1115 322.024 
v 774.323 5.44054 322.074 
v 774.322 5.13377 321.96 
v 774.322 5.42953 321.96 
v 774.323 4.81819 322.21 
v 774.323 4.84823 322.342 
v 774.323 4.86251 322.436 
v 774.323 5.16541 322.723 
v 774.323 4.84841 322.526 
v 774.323 5.45265 322.776 
v 774.323 5.69254 322.537 
v 774.323 5.67507 322.74 
v 774.323 5.85301 322.675 
v 774.323 5.81642 322.551 
v 774.323 5.99282 322.514 
v 774.315 4.5523 321.934 
v 774.315 4.9037 321.934 
v 774.34 4.5523 321.919 
v 774.34 4.9037 321.919 
v 774.287 4.5523 321.827 
v 774.354 4.5523 321.895 
v 774.354 4.9037 321.895 
v 774.354 4.5523 321.866 
v 774.34 4.9037 321.841 
v 774.354 4.9037 321.866 
v 774.34 4.5523 321.841 
v 774.278 4.49527 321.796 
v 774.363 4.49527 321.819 
v 774.363 0.208515 321.819 
v 774.324 0.208515 321.965 
v 774.385 4.49527 321.858 
v 774.324 4.49527 321.965 
v 774.385 0.208515 321.858 
v 774.363 0.208515 321.942 
v 774.385 4.49527 321.903 
v 774.363 4.49527 321.942 
v 774.385 0.208515 321.903 
v 774.38 5.634 321.859 
v 774.38 5.42953 321.902 
v 774.38 5.42953 321.859 
v 774.38 5.634 321.902 
v 774.359 5.634 321.938 
v 774.359 5.634 321.822 
v 774.359 5.42953 321.938 
v 774.38 5.13377 321.902 
v 774.322 5.13377 321.96 
v 774.322 4.94945 321.96 
v 774.359 5.13377 321.938 
v 774.359 4.94945 321.938 
v 774.38 4.94945 321.902 
v 774.38 5.13377 321.859 
v 774.38 4.94945 321.859 
v 774.359 4.94945 321.822 
v 774.359 5.13377 321.822 
v 774.359 5.42953 321.822 
v 774.28 4.94945 321.801 
v 774.28 5.634 321.801 
v 774.28 5.13377 321.801 
v 774.338 5.634 321.917 
v 774.338 5.70074 321.917 
v 774.351 5.634 321.894 
v 774.315 5.70074 321.83 
v 774.351 5.70074 321.894 
v 774.315 5.634 321.83 
v 774.351 5.634 321.867 
v 774.338 5.70074 321.843 
v 774.351 5.70074 321.867 
v 774.338 5.634 321.843 
v 774.385 4.49527 321.858 
v 774.354 4.5523 321.895 
v 774.385 4.49527 321.903 
v 774.354 4.5523 321.866 
v 774.34 4.5523 321.919 
v 774.34 4.5523 321.841 
v 774.363 4.49527 321.942 
v 774.363 4.49527 321.819 
v 774.379 5.70074 321.901 
v 774.358 5.70074 321.823 
v 774.244 5.70074 321.823 
v 774.223 5.70074 321.901 
v 774.288 5.634 321.83 
v 774.28 5.634 321.801 
v 774.243 5.634 321.822 
v 774.264 5.634 321.843 
v 774.315 5.634 321.83 
v 774.222 5.634 321.859 
v 774.322 5.634 321.801 
v 774.251 5.634 321.867 
v 774.359 5.634 321.822 
v 774.251 5.634 321.894 
v 774.338 5.634 321.843 
v 774.222 5.634 321.902 
v 774.38 5.634 321.859 
v 774.243 5.634 321.938 
v 774.351 5.634 321.867 
v 774.264 5.634 321.917 
v 774.351 5.634 321.894 
v 774.288 5.634 321.931 
v 774.38 5.634 321.902 
v 774.28 5.634 321.96 
v 774.338 5.634 321.917 
v 774.315 5.634 321.931 
v 774.359 5.634 321.938 
v 774.322 5.634 321.96 
v 774.28 5.48657 321.516 
v 774.28 5.44054 321.687 
v 774.322 5.44054 321.687 
v 774.322 5.42953 321.801 
v 774.28 5.42953 321.801 
v 774.322 5.48657 321.516 
v 774.28 5.58257 321.327 
v 774.322 5.58257 321.327 
v 774.28 5.69254 321.224 
v 774.322 5.69254 321.224 
v 774.281 5.48657 322.246 
v 774.323 5.44054 322.074 
v 774.281 5.44054 322.074 
v 774.322 5.42953 321.96 
v 774.28 5.42953 321.96 
v 774.323 5.48657 322.246 
v 774.281 5.58257 322.434 
v 774.323 5.58257 322.434 
v 774.358 5.74818 321.937 
v 774.358 5.70074 321.937 
v 774.301 6.47031 321.88 
v 774.322 5.74818 321.958 
v 774.322 5.70074 321.958 
v 774.28 5.74818 321.958 
v 774.28 5.70074 321.958 
v 774.244 5.74818 321.937 
v 774.244 5.70074 321.937 
v 774.223 5.70074 321.901 
v 774.359 4.94945 321.822 
v 774.34 4.9037 321.919 
v 774.359 4.94945 321.938 
v 774.322 4.94945 321.96 
v 774.315 4.9037 321.934 
v 774.287 4.9037 321.934 
v 774.28 4.94945 321.96 
v 774.262 4.9037 321.919 
v 774.243 4.94945 321.938 
v 774.248 4.9037 321.895 
v 774.248 4.9037 321.895 
v 774.262 4.5523 321.919 
v 774.262 4.9037 321.919 
v 774.248 4.5523 321.895 
v 774.287 4.5523 321.934 
v 774.287 4.9037 321.934 
v 774.315 4.5523 321.934 
v 774.315 4.9037 321.934 
v 774.34 4.5523 321.919 
v 774.34 4.9037 321.919 
v 774.217 0.208515 321.903 
v 774.239 0.208515 321.942 
v 774.239 4.49527 321.942 
v 774.278 0.208515 321.965 
v 774.278 4.49527 321.965 
v 774.324 0.208515 321.965 
v 774.324 4.49527 321.965 
v 774.363 0.208515 321.942 
v 774.385 4.49527 321.903 
v 774.363 4.49527 321.942 
v 774.359 5.634 321.938 
v 774.359 5.42953 321.938 
v 774.322 5.634 321.96 
v 774.322 5.42953 321.96 
v 774.28 5.634 321.96 
v 774.28 5.42953 321.96 
v 774.322 5.13377 321.96 
v 774.243 5.634 321.938 
v 774.243 5.42953 321.938 
v 774.222 5.634 321.902 
v 774.28 5.13377 321.96 
v 774.322 4.94945 321.96 
v 774.359 5.13377 321.938 
v 774.359 4.94945 321.938 
v 774.28 4.94945 321.96 
v 774.359 4.94945 321.822 
v 774.243 5.13377 321.938 
v 774.243 4.94945 321.938 
v 774.28 5.634 321.801 
v 774.28 5.13377 321.801 
v 774.28 5.58257 321.327 
v 774.322 5.58257 321.327 
v 774.28 5.69254 321.224 
v 774.322 5.69254 321.224 
v 774.322 5.81642 321.211 
v 774.28 5.81642 321.211 
v 774.28 5.99282 321.245 
v 774.322 5.99282 321.245 
v 774.264 5.634 321.917 
v 774.264 5.70074 321.917 
v 774.288 5.634 321.931 
v 774.288 5.70074 321.931 
v 774.315 5.634 321.931 
v 774.315 5.70074 321.931 
v 774.338 5.634 321.917 
v 774.338 5.70074 321.917 
v 774.322 5.1115 321.738 
v 774.28 4.97929 321.638 
v 774.322 4.97929 321.638 
v 774.28 4.81819 321.551 
v 774.322 4.81819 321.551 
v 774.28 5.1115 321.738 
v 774.28 4.81819 321.551 
v 774.285 4.60848 321.551 
v 774.322 4.81819 321.551 
v 774.317 4.60848 321.551 
v 774.292 4.51184 321.518 
v 774.31 4.51184 321.518 
v 774.301 4.43347 321.457 
v 774.385 4.49527 321.903 
v 774.34 4.5523 321.919 
v 774.363 4.49527 321.942 
v 774.324 4.49527 321.965 
v 774.315 4.5523 321.934 
v 774.287 4.5523 321.934 
v 774.278 4.49527 321.965 
v 774.262 4.5523 321.919 
v 774.239 4.49527 321.942 
v 774.278 0.208515 321.965 
v 774.324 0.208515 321.796 
v 774.301 6.47031 321.88 
v 774.244 5.70074 321.823 
v 774.244 5.74818 321.937 
v 774.244 5.70074 321.937 
v 774.244 5.74818 321.823 
v 774.223 5.70074 321.859 
v 774.223 5.74818 321.901 
v 774.223 5.70074 321.901 
v 774.223 5.74818 321.859 
v 774.288 5.634 321.83 
v 774.287 4.9037 321.827 
v 774.262 4.9037 321.841 
v 774.243 4.94945 321.822 
v 774.262 4.9037 321.919 
v 774.222 4.94945 321.859 
v 774.243 4.94945 321.938 
v 774.248 4.9037 321.866 
v 774.222 4.94945 321.902 
v 774.248 4.9037 321.895 
v 774.301 4.65116 321.251 
v 774.301 4.7625 321.289 
v 774.301 4.75447 321.144 
v 774.28 4.84841 321.236 
v 774.28 4.86251 321.326 
v 774.28 5.16541 321.038 
v 774.301 4.77012 321.336 
v 774.301 5.13578 320.918 
v 774.28 4.84823 321.419 
v 774.301 4.75688 321.389 
v 774.28 5.45265 320.986 
v 774.301 5.45135 320.865 
v 774.301 5.68014 320.903 
v 774.28 5.67507 321.021 
v 774.301 5.86422 320.973 
v 774.28 5.85301 321.087 
v 774.301 6.0205 321.149 
v 774.28 5.99282 321.245 
v 774.301 6.14304 321.401 
v 774.301 4.73217 321.412 
v 774.28 4.81819 321.551 
v 774.285 4.60848 321.551 
v 774.292 4.51184 321.518 
v 774.301 4.43347 321.457 
v 774.322 4.84841 321.236 
v 774.302 4.75447 322.617 
v 774.323 4.84841 322.526 
v 774.302 5.13578 322.843 
v 774.302 5.45135 322.896 
v 774.302 6.0205 322.63 
v 774.323 5.99282 322.514 
v 774.323 4.81819 322.21 
v 774.311 4.51184 322.244 
v 774.281 4.86251 322.436 
v 774.302 4.7625 322.472 
v 774.281 4.84841 322.526 
v 774.302 4.77012 322.425 
v 774.281 4.84823 322.342 
v 774.302 4.75447 322.617 
v 774.302 4.65116 322.51 
v 774.281 5.16541 322.723 
v 774.302 4.75688 322.372 
v 774.302 5.13578 322.843 
v 774.281 5.45265 322.776 
v 774.302 5.45135 322.896 
v 774.302 5.68014 322.858 
v 774.281 5.67507 322.74 
v 774.302 5.86422 322.789 
v 774.281 5.85301 322.675 
v 774.302 6.0205 322.63 
v 774.281 5.99282 322.514 
v 774.302 6.14304 322.359 
v 774.302 4.73217 322.349 
v 774.281 4.81819 322.21 
v 774.286 4.60848 322.21 
v 774.293 4.51184 322.244 
v 774.302 4.43347 322.305 
v 774.28 5.58257 321.327 
v 774.28 4.97929 321.638 
v 774.28 5.48657 321.516 
v 774.28 5.1115 321.738 
v 774.28 5.44054 321.687 
v 774.28 5.13377 321.801 
v 774.28 5.42953 321.801 
v 774.28 4.81819 321.551 
v 774.28 4.84823 321.419 
v 774.28 4.86251 321.326 
v 774.28 5.16541 321.038 
v 774.28 4.84841 321.236 
v 774.28 5.45265 320.986 
v 774.28 5.69254 321.224 
v 774.28 5.67507 321.021 
v 774.28 5.85301 321.087 
v 774.28 5.81642 321.211 
v 774.28 5.99282 321.245 
v 774.323 4.97929 322.124 
v 774.323 5.48657 322.246 
v 774.323 5.69254 322.537 
v 774.281 4.97929 322.124 
v 774.281 5.48657 322.246 
v 774.281 5.1115 322.024 
v 774.281 5.44054 322.074 
v 774.28 5.13377 321.96 
v 774.28 5.42953 321.96 
v 774.281 5.58257 322.434 
v 774.281 4.81819 322.21 
v 774.281 4.84823 322.342 
v 774.281 4.86251 322.436 
v 774.281 5.16541 322.723 
v 774.281 4.84841 322.526 
v 774.281 5.45265 322.776 
v 774.281 5.69254 322.537 
v 774.281 5.67507 322.74 
v 774.281 5.85301 322.675 
v 774.281 5.81642 322.551 
v 774.281 5.99282 322.514 
v 774.248 4.9037 321.895 
v 774.262 4.5523 321.919 
v 774.262 4.9037 321.919 
v 774.248 4.5523 321.895 
v 774.248 4.9037 321.866 
v 774.248 4.5523 321.866 
v 774.262 4.9037 321.841 
v 774.262 4.5523 321.841 
v 774.287 4.9037 321.827 
v 774.287 4.5523 321.827 
v 774.239 4.49527 321.819 
v 774.217 0.208515 321.858 
v 774.217 4.49527 321.858 
v 774.239 0.208515 321.819 
v 774.217 0.208515 321.903 
v 774.278 4.49527 321.796 
v 774.217 4.49527 321.903 
v 774.239 0.208515 321.942 
v 774.239 4.49527 321.942 
v 774.278 4.49527 321.965 
v 774.324 0.208515 321.965 
v 774.324 4.49527 321.965 
v 774.28 5.42953 321.96 
v 774.243 5.634 321.938 
v 774.243 5.42953 321.938 
v 774.222 5.634 321.902 
v 774.28 5.13377 321.96 
v 774.222 5.42953 321.902 
v 774.222 5.634 321.859 
v 774.243 5.13377 321.938 
v 774.243 4.94945 321.938 
v 774.222 4.94945 321.902 
v 774.28 5.42953 321.801 
v 774.28 5.634 321.801 
v 774.28 5.13377 321.801 
v 774.243 5.42953 321.822 
v 774.243 5.634 321.822 
v 774.243 5.13377 321.822 
v 774.243 4.94945 321.822 
v 774.222 5.13377 321.859 
v 774.222 4.94945 321.859 
v 774.222 5.42953 321.859 
v 774.222 5.13377 321.902 
v 774.251 5.70074 321.894 
v 774.264 5.634 321.917 
v 774.264 5.70074 321.917 
v 774.251 5.634 321.894 
v 774.288 5.634 321.931 
v 774.251 5.70074 321.867 
v 774.251 5.634 321.867 
v 774.264 5.70074 321.843 
v 774.264 5.634 321.843 
v 774.278 4.49527 321.965 
v 774.287 4.5523 321.827 
v 774.262 4.5523 321.919 
v 774.239 4.49527 321.942 
v 774.262 4.5523 321.841 
v 774.239 4.49527 321.819 
v 774.217 4.49527 321.858 
v 774.217 4.49527 321.903 
v 774.248 4.5523 321.866 
v 774.248 4.5523 321.895 
v 774.217 0.208515 321.858 
v 774.385 0.208515 321.903 
v 774.239 0.208515 321.942 
v 774.217 0.208515 321.903 
v 774.363 0.208515 321.942 
v 774.278 0.208515 321.965 
v 774.324 0.208515 321.965 
v 774.385 0.208515 321.858 
v 774.278 0.208515 321.796 
v 774.239 0.208515 321.819 
v 774.363 0.208515 321.819 
v 774.324 0.208515 321.796 
v 774.354 4.9037 321.866 
v 774.38 4.94945 321.902 
v 774.359 4.94945 321.822 
v 774.315 4.9037 321.934 
v 774.287 4.9037 321.827 
v 774.222 4.94945 321.859 
v 774.243 4.94945 321.938 
v 774.248 4.9037 321.895 
v 774.28 5.99282 321.245 
v 774.322 5.99282 321.245 
v 774.301 6.14304 321.401 
v 774.323 5.99282 322.514 
v 774.281 5.99282 322.514 
v 774.302 6.14304 322.359 
v 774.251 5.70074 321.867 
v 774.338 5.634 321.917 
v 774.315 5.70074 321.83 
v 774.322 5.1115 321.738 
v 774.28 5.1115 321.738 
v 774.28 5.13377 321.801 
v 774.322 5.13377 321.801 
v 774.281 5.1115 322.024 
v 774.323 5.1115 322.024 
v 774.322 5.13377 321.96 
v 774.28 5.13377 321.96 
v 774.354 4.5523 321.866 
v 774.324 4.49527 321.965 
v 774.278 4.49527 321.796 
v 774.379 5.70074 321.859 
v 774.351 5.70074 321.894 
v 774.351 5.70074 321.867 
v 774.338 5.70074 321.843 
v 774.379 5.70074 321.901 
v 774.358 5.70074 321.823 
v 774.338 5.70074 321.917 
v 774.322 5.70074 321.803 
v 774.358 5.70074 321.937 
v 774.315 5.70074 321.83 
v 774.315 5.70074 321.931 
v 774.28 5.70074 321.803 
v 774.322 5.70074 321.958 
v 774.288 5.70074 321.83 
v 774.28 5.70074 321.958 
v 774.264 5.70074 321.843 
v 774.288 5.70074 321.931 
v 774.244 5.70074 321.823 
v 774.244 5.70074 321.937 
v 774.223 5.70074 321.859 
v 774.264 5.70074 321.917 
v 774.251 5.70074 321.867 
v 774.251 5.70074 321.894 
v 774.223 5.70074 321.901 
v 774.358 5.70074 321.823 
v 774.301 6.47031 321.88 
v 774.358 5.74818 321.823 
v 774.322 5.70074 321.803 
v 774.322 5.74818 321.803 
v 774.28 5.70074 321.803 
v 774.28 5.74818 321.803 
v 774.244 5.70074 321.823 
v 774.244 5.74818 321.823 
v 774.34 4.9037 321.841 
v 774.359 4.94945 321.822 
v 774.322 4.94945 321.801 
v 774.315 4.9037 321.827 
v 774.28 4.94945 321.801 
v 774.287 4.9037 321.827 
v 774.262 4.9037 321.841 
v 774.243 4.94945 321.822 
v 774.222 4.94945 321.859 
v 774.243 4.94945 321.938 
v 774.248 4.9037 321.895 
v 774.262 4.9037 321.841 
v 774.262 4.5523 321.841 
v 774.287 4.9037 321.827 
v 774.287 4.5523 321.827 
v 774.315 4.9037 321.827 
v 774.315 4.5523 321.827 
v 774.354 4.5523 321.866 
v 774.34 4.9037 321.841 
v 774.354 4.9037 321.866 
v 774.34 4.5523 321.841 
v 774.239 4.49527 321.819 
v 774.239 0.208515 321.819 
v 774.278 4.49527 321.796 
v 774.278 0.208515 321.796 
v 774.324 4.49527 321.796 
v 774.324 0.208515 321.796 
v 774.363 4.49527 321.819 
v 774.363 0.208515 321.819 
v 774.359 5.634 321.822 
v 774.222 5.634 321.859 
v 774.359 4.94945 321.822 
v 774.243 4.94945 321.938 
v 774.359 5.13377 321.822 
v 774.322 4.94945 321.801 
v 774.359 5.42953 321.822 
v 774.322 5.13377 321.801 
v 774.28 4.94945 321.801 
v 774.322 5.42953 321.801 
v 774.322 5.634 321.801 
v 774.28 5.42953 321.801 
v 774.28 5.634 321.801 
v 774.28 5.13377 321.801 
v 774.243 5.42953 321.822 
v 774.243 5.634 321.822 
v 774.243 5.13377 321.822 
v 774.243 4.94945 321.822 
v 774.222 4.94945 321.859 
v 774.281 5.58257 322.434 
v 774.323 5.58257 322.434 
v 774.281 5.69254 322.537 
v 774.323 5.69254 322.537 
v 774.281 5.81642 322.551 
v 774.323 5.81642 322.551 
v 774.323 5.99282 322.514 
v 774.281 5.99282 322.514 
v 774.251 5.70074 321.867 
v 774.251 5.634 321.867 
v 774.264 5.70074 321.843 
v 774.264 5.634 321.843 
v 774.288 5.70074 321.83 
v 774.288 5.634 321.83 
v 774.315 5.70074 321.83 
v 774.315 5.634 321.83 
v 774.338 5.70074 321.843 
v 774.338 5.634 321.843 
v 774.281 5.1115 322.024 
v 774.323 4.97929 322.124 
v 774.281 4.97929 322.124 
v 774.323 4.81819 322.21 
v 774.281 4.81819 322.21 
v 774.323 5.1115 322.024 
v 774.323 4.81819 322.21 
v 774.318 4.60848 322.21 
v 774.281 4.81819 322.21 
v 774.286 4.60848 322.21 
v 774.311 4.51184 322.244 
v 774.293 4.51184 322.244 
v 774.302 4.43347 322.305 
v 774.354 4.5523 321.866 
v 774.34 4.5523 321.841 
v 774.363 4.49527 321.819 
v 774.324 4.49527 321.796 
v 774.315 4.5523 321.827 
v 774.278 4.49527 321.796 
v 774.287 4.5523 321.827 
v 774.262 4.5523 321.841 
v 774.239 4.49527 321.819 

vn 0 -1 0 
vn 0 -1 0 
vn 0.96063 0.0551181 0.259843 
vn 0.968504 0 -0.259843 
vn 0.96063 0.0551181 -0.259843 
vn 0.968504 0 0.259843 
vn 0.708661 0 -0.708661 
vn 0.708661 0.0551181 0.708661 
vn 0.708661 0 0.708661 
vn 0 1 0 
vn 0.708661 0.0551181 -0.708661 
vn 0 1 0 
vn 0.834646 -0.503937 -0.220472 
vn 0.834646 -0.503937 0.220472 
vn 0.834646 -0.503937 -0.220472 
vn 0.606299 -0.503937 -0.606299 
vn 0.834646 -0.503937 0.220472 
vn 0.606299 -0.503937 -0.606299 
vn 0.606299 -0.503937 0.606299 
vn 0.606299 -0.503937 0.606299 
vn 0.220472 -0.503937 0.834646 
vn 0.220472 -0.503937 0.834646 
vn -0.220472 -0.503937 -0.834646 
vn -0.984252 -0.0551181 -0.15748 
vn -0.984252 0 -0.173228 
vn -0.976378 0.102362 -0.173228 
vn -0.96063 0.244094 -0.141732 
vn -0.992126 -0.0944882 -0.102362 
vn -0.992126 -0.023622 -0.125984 
vn 0.976378 -0.220472 0 
vn 0.984252 -0.15748 0.015748 
vn 0.992126 -0.133858 -0.0472441 
vn 0.976378 -0.220472 -0.00787402 
vn 0.976378 -0.19685 -0.0551181 
vn 0.992126 -0.102362 -0.0629921 
vn 0.992126 -0.110236 0.00787402 
vn 0.984252 -0.0629921 -0.15748 
vn 0.976378 -0.19685 -0.0551181 
vn 0.984252 -0.0551181 -0.15748 
vn 0.984252 0 -0.173228 
vn 0.984252 0 -0.173228 
vn 0.984252 0.0472441 -0.173228 
vn 0.984252 0.0472441 -0.173228 
vn 0.976378 0.102362 -0.173228 
vn 0.976378 0.141732 -0.165354 
vn 0.968504 0.204724 -0.15748 
vn 0.96063 0.244094 -0.141732 
vn 0.952756 0.275591 -0.133858 
vn 0.992126 -0.0944882 -0.102362 
vn 0.992126 -0.0944882 -0.102362 
vn 0.992126 -0.023622 -0.133858 
vn 0.992126 -0.023622 -0.125984 
vn 0.992126 -0.015748 -0.11811 
vn 0.992126 -0.110236 -0.00787402 
vn 0.984252 -0.15748 -0.023622 
vn 0.992126 -0.102362 0.0629921 
vn 0.992126 -0.133858 0.0472441 
vn 0.976378 -0.220472 0 
vn 0.984252 -0.0629921 0.15748 
vn 0.976378 -0.220472 0.00787402 
vn 0.984252 -0.0551181 0.15748 
vn 0.976378 -0.19685 0.0551181 
vn 0.976378 -0.19685 0.0551181 
vn 0.984252 0 0.173228 
vn 0.984252 0 0.173228 
vn 0.984252 0.0472441 0.173228 
vn 0.984252 0.0472441 0.173228 
vn 0.984252 0.0944882 0.165354 
vn 0.976378 0.125984 0.15748 
vn 0.968504 0.188976 0.141732 
vn 0.968504 0.228346 0.125984 
vn 0.96063 0.259843 0.11811 
vn 0.992126 -0.0944882 0.102362 
vn 0.992126 -0.0944882 0.102362 
vn 0.992126 -0.023622 0.133858 
vn 0.992126 -0.023622 0.125984 
vn 0.992126 -0.015748 0.11811 
vn -1 0 0 
vn -1 0 0 
vn -1 0 0 
vn 1 0 0 
vn 1 0 0 
vn 1 0 0 
vn 1 0 0 
vn 1 0 0 
vn 1 0 0 
vn 1 0 0 
vn 1 0 0 
vn 1 0 0 
vn 1 0 0 
vn 1 0 0 
vn 1 0 0 
vn 1 0 0 
vn 1 0 0 
vn 1 0 0 
vn 1 0 0 
vn 1 0 0 
vn 1 0 0 
vn 1 0 0 
vn 1 0 0 
vn 1 0 0 
vn 1 0 -0.00787402 
vn 1 0 -0.00787402 
vn 1 0 -0.00787402 
vn 1 0 -0.00787402 
vn 1 0 0 
vn 1 0 0 
vn 1 0 0 
vn 1 0 0 
vn 1 0 0 
vn 1 0 0 
vn 1 0 0 
vn 1 0 0 
vn 1 0 0 
vn 1 0 0 
vn 1 0 0 
vn 0.259843 0 0.968504 
vn 0.259843 0 0.968504 
vn 0.708661 0 0.708661 
vn 0.708661 0 0.708661 
vn -0.259843 0 -0.968504 
vn 0.968504 0 0.259843 
vn 0.968504 0 0.259843 
vn 0.968504 0 -0.259843 
vn 0.708661 0 -0.708661 
vn 0.968504 0 -0.259843 
vn 0.708661 0 -0.708661 
vn -0.259843 0 -0.968504 
vn 0.708661 0 -0.708661 
vn 0.708661 0 -0.708661 
vn 0.259843 0 0.968504 
vn 0.968504 0 -0.259843 
vn 0.259843 0 0.968504 
vn 0.968504 0 -0.259843 
vn 0.708661 0 0.708661 
vn 0.968504 0 0.259843 
vn 0.708661 0 0.708661 
vn 0.968504 0 0.259843 
vn 0.968504 0 -0.259843 
vn 0.968504 0 0.259843 
vn 0.968504 0 -0.259843 
vn 0.968504 0 0.259843 
vn 0.708661 0 0.708661 
vn 0.708661 0 -0.708661 
vn 0.708661 0 0.708661 
vn 0.968504 0 0.259843 
vn 0.346457 0 0.937008 
vn 0.259843 0 0.968504 
vn 0.708661 0 0.708661 
vn 0.708661 0 0.708661 
vn 0.968504 0 0.259843 
vn 0.968504 0 -0.259843 
vn 0.968504 0 -0.259843 
vn 0.708661 0 -0.708661 
vn 0.708661 0 -0.708661 
vn 0.708661 0 -0.708661 
vn -0.259843 0 -0.968504 
vn -0.259843 0 -0.968504 
vn -0.346457 0 -0.937008 
vn 0.708661 0 0.708661 
vn 0.708661 0 0.708661 
vn 0.968504 0 0.259843 
vn 0.259843 0 -0.968504 
vn 0.968504 0 0.259843 
vn 0.259843 0 -0.968504 
vn 0.968504 0 -0.259843 
vn 0.708661 0 -0.708661 
vn 0.968504 0 -0.259843 
vn 0.708661 0 -0.708661 
vn 0.84252 0.488189 -0.228346 
vn 0.84252 0.488189 0.228346 
vn 0.84252 0.488189 0.228346 
vn 0.84252 0.488189 -0.228346 
vn 0.614173 0.488189 0.614173 
vn 0.614173 0.488189 -0.614173 
vn 0.614173 0.488189 0.614173 
vn 0.614173 0.488189 -0.614173 
vn 0.968504 0 0.259843 
vn 0.708661 0 -0.708661 
vn -0.708661 0 -0.708661 
vn -0.968504 0 0.259843 
vn 0 1 0 
vn 0 1 0 
vn 0 1 0 
vn 0 1 0 
vn 0 1 0 
vn 0 1 0 
vn 0 1 0 
vn 0 1 0 
vn 0 1 0 
vn 0 1 0 
vn 0 1 0 
vn 0 1 0 
vn 0 1 0 
vn 0 1 0 
vn 0 1 0 
vn 0 1 0 
vn 0 1 0 
vn 0 1 0 
vn 0 1 0 
vn 0 1 0 
vn 0 1 0 
vn 0 1 0 
vn 0 1 0 
vn 0 1 0 
vn 0 0.937008 0.354331 
vn 0 0.984252 0.181102 
vn 0 0.984252 0.181102 
vn 0 0.992126 0.0944882 
vn 0 0.992126 0.0944882 
vn 0 0.937008 0.354331 
vn 0 0.80315 0.598425 
vn 0 0.80315 0.598425 
vn 0 0.417323 0.905512 
vn 0 0.417323 0.905512 
vn 0 0.937008 -0.354331 
vn 0 0.984252 -0.181102 
vn 0 0.984252 -0.181102 
vn 0 0.992126 -0.0944882 
vn 0 0.992126 -0.0944882 
vn 0 0.937008 -0.354331 
vn 0 0.80315 -0.598425 
vn 0 0.80315 -0.598425 
vn 0.708661 0.0551181 0.708661 
vn 0.708661 0 0.708661 
vn 0 1 0 
vn 0.259843 0.0551181 0.96063 
vn 0.259843 0 0.968504 
vn -0.259843 0.0551181 0.96063 
vn -0.259843 0 0.968504 
vn -0.708661 0.0551181 0.708661 
vn -0.708661 0 0.708661 
vn -0.968504 0 0.259843 
vn 0.606299 -0.503937 -0.606299 
vn 0.606299 -0.503937 0.606299 
vn 0.606299 -0.503937 0.606299 
vn 0.220472 -0.503937 0.834646 
vn 0.220472 -0.503937 0.834646 
vn -0.220472 -0.503937 0.834646 
vn -0.220472 -0.503937 0.834646 
vn -0.606299 -0.503937 0.606299 
vn -0.606299 -0.503937 0.606299 
vn -0.834646 -0.503937 0.220472 
vn -0.968504 0 0.259843 
vn -0.708661 0 0.708661 
vn -0.708661 0 0.708661 
vn -0.968504 0 0.259843 
vn -0.259843 0 0.968504 
vn -0.259843 0 0.968504 
vn 0.259843 0 0.968504 
vn 0.259843 0 0.968504 
vn 0.708661 0 0.708661 
vn 0.708661 0 0.708661 
vn -0.968504 0 0.259843 
vn -0.708661 0 0.708661 
vn -0.708661 0 0.708661 
vn -0.259843 0 0.968504 
vn -0.259843 0 0.968504 
vn 0.259843 0 0.968504 
vn 0.259843 0 0.968504 
vn 0.708661 0 0.708661 
vn 0.968504 0 0.259843 
vn 0.708661 0 0.708661 
vn 0.708661 0 0.708661 
vn 0.708661 0 0.708661 
vn 0.259843 0 0.968504 
vn 0.346457 0 0.937008 
vn -0.259843 0 0.968504 
vn -0.346457 0 0.937008 
vn 0.346457 0 0.937008 
vn -0.708661 0 0.708661 
vn -0.708661 0 0.708661 
vn -0.968504 0 0.259843 
vn -0.346457 0 0.937008 
vn 0.259843 0 0.968504 
vn 0.708661 0 0.708661 
vn 0.708661 0 0.708661 
vn -0.259843 0 0.968504 
vn 0.708661 0 -0.708661 
vn -0.708661 0 0.708661 
vn -0.708661 0 0.708661 
vn -0.259843 0 -0.968504 
vn -0.346457 0 -0.937008 
vn 0 0.80315 0.598425 
vn 0 0.80315 0.598425 
vn 0 0.417323 0.905512 
vn 0 0.417323 0.905512 
vn 0 -0.0393701 1 
vn 0 -0.0393701 1 
vn 0 -0.472441 0.88189 
vn 0 -0.472441 0.88189 
vn -0.708661 0 0.708661 
vn -0.708661 0 0.708661 
vn -0.259843 0 0.968504 
vn -0.259843 0 0.968504 
vn 0.259843 0 0.968504 
vn 0.259843 0 0.968504 
vn 0.708661 0 0.708661 
vn 0.708661 0 0.708661 
vn 0 -0.811024 0.590551 
vn 0 -0.543307 0.84252 
vn 0 -0.543307 0.84252 
vn 0 -0.244094 0.968504 
vn 0 -0.244094 0.968504 
vn 0 -0.811024 0.590551 
vn 0 -0.244094 0.968504 
vn 0 -0.15748 0.984252 
vn 0 -0.244094 0.968504 
vn 0 -0.15748 0.984252 
vn 0 -0.464567 0.88189 
vn 0 -0.464567 0.88189 
vn 0 -0.614173 0.787402 
vn 0.84252 0.488189 0.228346 
vn 0.614173 0.488189 0.614173 
vn 0.614173 0.488189 0.614173 
vn 0.228346 0.488189 0.84252 
vn 0.228346 0.488189 0.84252 
vn -0.228346 0.488189 0.84252 
vn -0.228346 0.488189 0.84252 
vn -0.614173 0.488189 0.614173 
vn -0.614173 0.488189 0.614173 
vn 0 -1 0 
vn 0 -1 0 
vn 0 1 0 
vn -0.708661 0 -0.708661 
vn -0.708661 0.0551181 0.708661 
vn -0.708661 0 0.708661 
vn -0.708661 0.0551181 -0.708661 
vn -0.968504 0 -0.259843 
vn -0.96063 0.0551181 0.259843 
vn -0.968504 0 0.259843 
vn -0.96063 0.0551181 -0.259843 
vn 0 1 0 
vn -0.220472 -0.503937 -0.834646 
vn -0.606299 -0.503937 -0.606299 
vn -0.606299 -0.503937 -0.606299 
vn -0.606299 -0.503937 0.606299 
vn -0.834646 -0.503937 -0.220472 
vn -0.606299 -0.503937 0.606299 
vn -0.834646 -0.503937 -0.220472 
vn -0.834646 -0.503937 0.220472 
vn -0.834646 -0.503937 0.220472 
vn -0.992126 -0.110236 0.00787402 
vn -0.984252 -0.15748 0.015748 
vn -0.992126 -0.102362 -0.0629921 
vn -0.992126 -0.133858 -0.0472441 
vn -0.976378 -0.220472 0 
vn -0.984252 -0.0629921 -0.15748 
vn -0.976378 -0.220472 -0.00787402 
vn -0.984252 -0.0551181 -0.15748 
vn -0.976378 -0.19685 -0.0551181 
vn -0.976378 -0.19685 -0.0551181 
vn -0.984252 0 -0.173228 
vn -0.984252 0 -0.173228 
vn -0.984252 0.0472441 -0.173228 
vn -0.984252 0.0472441 -0.173228 
vn -0.976378 0.102362 -0.173228 
vn -0.976378 0.141732 -0.165354 
vn -0.968504 0.204724 -0.15748 
vn -0.96063 0.244094 -0.141732 
vn -0.952756 0.275591 -0.133858 
vn -0.992126 -0.0944882 -0.102362 
vn -0.992126 -0.0944882 -0.102362 
vn -0.992126 -0.023622 -0.133858 
vn -0.992126 -0.023622 -0.125984 
vn -0.992126 -0.015748 -0.11811 
vn 0.992126 -0.133858 -0.0472441 
vn 0.992126 -0.102362 0.0629921 
vn 0.992126 -0.133858 0.0472441 
vn 0.984252 -0.0551181 0.15748 
vn 0.984252 0 0.173228 
vn 0.968504 0.188976 0.141732 
vn 0.968504 0.228346 0.125984 
vn 0.992126 -0.0944882 0.102362 
vn 0.992126 -0.023622 0.125984 
vn -0.976378 -0.220472 0 
vn -0.984252 -0.15748 -0.023622 
vn -0.992126 -0.133858 0.0472441 
vn -0.976378 -0.220472 0.00787402 
vn -0.976378 -0.19685 0.0551181 
vn -0.992126 -0.102362 0.0629921 
vn -0.992126 -0.110236 -0.00787402 
vn -0.984252 -0.0629921 0.15748 
vn -0.976378 -0.19685 0.0551181 
vn -0.984252 -0.0551181 0.15748 
vn -0.984252 0 0.173228 
vn -0.984252 0 0.173228 
vn -0.984252 0.0472441 0.173228 
vn -0.984252 0.0472441 0.173228 
vn -0.984252 0.0944882 0.165354 
vn -0.976378 0.125984 0.15748 
vn -0.968504 0.188976 0.141732 
vn -0.968504 0.228346 0.125984 
vn -0.96063 0.259843 0.11811 
vn -0.992126 -0.0944882 0.102362 
vn -0.992126 -0.0944882 0.102362 
vn -0.992126 -0.023622 0.133858 
vn -0.992126 -0.023622 0.125984 
vn -0.992126 -0.015748 0.11811 
vn -1 0 0 
vn -1 0 0 
vn -1 0 0 
vn -1 0 0 
vn -1 0 0 
vn -1 0 0 
vn -1 0 0 
vn -1 0 0 
vn -1 0 0 
vn -1 0 0 
vn -1 0 0 
vn -1 0 0 
vn -1 0 0 
vn -1 0 0 
vn -1 0 0 
vn -1 0 0 
vn -1 0 0 
vn -1 0 0 
vn 1 0 0 
vn 1 0 0 
vn 1 0 0 
vn -1 0 0 
vn -1 0 0 
vn -1 0 0.00787402 
vn -1 0 0.00787402 
vn -1 0 0.00787402 
vn -1 0 0.00787402 
vn -1 0 0 
vn -1 0 0 
vn -1 0 0 
vn -1 0 0 
vn -1 0 0 
vn -1 0 0 
vn -1 0 0 
vn -1 0 0 
vn -1 0 0 
vn -1 0 0 
vn -1 0 0 
vn -1 0 0 
vn -0.968504 0 0.259843 
vn -0.708661 0 0.708661 
vn -0.708661 0 0.708661 
vn -0.968504 0 0.259843 
vn -0.968504 0 -0.259843 
vn -0.968504 0 -0.259843 
vn -0.708661 0 -0.708661 
vn -0.708661 0 -0.708661 
vn -0.259843 0 -0.968504 
vn -0.259843 0 -0.968504 
vn -0.708661 0 -0.708661 
vn -0.968504 0 -0.259843 
vn -0.968504 0 -0.259843 
vn -0.708661 0 -0.708661 
vn -0.968504 0 0.259843 
vn -0.259843 0 -0.968504 
vn -0.968504 0 0.259843 
vn -0.708661 0 0.708661 
vn -0.708661 0 0.708661 
vn -0.259843 0 0.968504 
vn 0.259843 0 0.968504 
vn 0.259843 0 0.968504 
vn -0.346457 0 0.937008 
vn -0.708661 0 0.708661 
vn -0.708661 0 0.708661 
vn -0.968504 0 0.259843 
vn -0.346457 0 0.937008 
vn -0.968504 0 0.259843 
vn -0.968504 0 -0.259843 
vn -0.708661 0 0.708661 
vn -0.708661 0 0.708661 
vn -0.968504 0 0.259843 
vn -0.346457 0 -0.937008 
vn -0.259843 0 -0.968504 
vn -0.346457 0 -0.937008 
vn -0.708661 0 -0.708661 
vn -0.708661 0 -0.708661 
vn -0.708661 0 -0.708661 
vn -0.708661 0 -0.708661 
vn -0.968504 0 -0.259843 
vn -0.968504 0 -0.259843 
vn -0.968504 0 -0.259843 
vn -0.968504 0 0.259843 
vn -0.968504 0 0.259843 
vn -0.708661 0 0.708661 
vn -0.708661 0 0.708661 
vn -0.968504 0 0.259843 
vn -0.259843 0 0.968504 
vn -0.968504 0 -0.259843 
vn -0.968504 0 -0.259843 
vn -0.708661 0 -0.708661 
vn -0.708661 0 -0.708661 
vn -0.228346 0.488189 0.84252 
vn -0.228346 0.488189 -0.84252 
vn -0.614173 0.488189 0.614173 
vn -0.614173 0.488189 0.614173 
vn -0.614173 0.488189 -0.614173 
vn -0.614173 0.488189 -0.614173 
vn -0.84252 0.488189 -0.228346 
vn -0.84252 0.488189 0.228346 
vn -0.84252 0.488189 -0.228346 
vn -0.84252 0.488189 0.228346 
vn 0 -1 0 
vn 0 -1 0 
vn 0 -1 0 
vn 0 -1 0 
vn 0 -1 0 
vn 0 -1 0 
vn 0 -1 0 
vn 0 -1 0 
vn 0 -1 0 
vn 0 -1 0 
vn 0 -1 0 
vn 0 -1 0 
vn 0.834646 -0.503937 -0.220472 
vn 0.834646 -0.503937 0.220472 
vn 0.606299 -0.503937 -0.606299 
vn 0.220472 -0.503937 0.834646 
vn -0.220472 -0.503937 -0.834646 
vn -0.834646 -0.503937 -0.220472 
vn -0.606299 -0.503937 0.606299 
vn -0.834646 -0.503937 0.220472 
vn 0 -0.472441 0.88189 
vn 0 -0.472441 0.88189 
vn 0 -0.724409 0.692913 
vn 0 -0.472441 -0.88189 
vn 0 -0.472441 -0.88189 
vn 0 -0.716535 -0.692913 
vn -0.968504 0 -0.259843 
vn 0.708661 0 0.708661 
vn 0.259843 0 -0.968504 
vn 0 -0.811024 0.590551 
vn 0 -0.811024 0.590551 
vn 0 -0.944882 0.330709 
vn 0 -0.944882 0.330709 
vn 0 -0.811024 -0.590551 
vn 0 -0.811024 -0.590551 
vn 0 -0.944882 -0.330709 
vn 0 -0.944882 -0.330709 
vn 0.84252 0.488189 -0.228346 
vn 0.228346 0.488189 0.84252 
vn -0.228346 0.488189 -0.84252 
vn 0 -1 0 
vn 0 -1 0 
vn 0 -1 0 
vn 0 -1 0 
vn 0 -1 0 
vn 0 -1 0 
vn 0 -1 0 
vn 0 -1 0 
vn 0 -1 0 
vn 0 -1 0 
vn 0 -1 0 
vn 0 -1 0 
vn 0 -1 0 
vn 0 -1 0 
vn 0 -1 0 
vn 0 -1 0 
vn 0 -1 0 
vn 0 -1 0 
vn 0 -1 0 
vn 0 -1 0 
vn 0 -1 0 
vn 0 -1 0 
vn 0 -1 0 
vn 0 -1 0 
vn 0.708661 0 -0.708661 
vn 0 1 0 
vn 0.708661 0.0551181 -0.708661 
vn 0.259843 0 -0.968504 
vn 0.259843 0.0551181 -0.96063 
vn -0.259843 0 -0.968504 
vn -0.259843 0.0551181 -0.96063 
vn -0.708661 0 -0.708661 
vn -0.708661 0.0551181 -0.708661 
vn 0.606299 -0.503937 -0.606299 
vn 0.606299 -0.503937 -0.606299 
vn 0.220472 -0.503937 -0.834646 
vn 0.220472 -0.503937 -0.834646 
vn -0.220472 -0.503937 -0.834646 
vn -0.220472 -0.503937 -0.834646 
vn -0.606299 -0.503937 -0.606299 
vn -0.606299 -0.503937 -0.606299 
vn -0.834646 -0.503937 -0.220472 
vn -0.606299 -0.503937 0.606299 
vn -0.834646 -0.503937 0.220472 
vn -0.708661 0 -0.708661 
vn -0.708661 0 -0.708661 
vn -0.259843 0 -0.968504 
vn -0.259843 0 -0.968504 
vn 0.259843 0 -0.968504 
vn 0.259843 0 -0.968504 
vn 0.968504 0 -0.259843 
vn 0.708661 0 -0.708661 
vn 0.968504 0 -0.259843 
vn 0.708661 0 -0.708661 
vn -0.708661 0 -0.708661 
vn -0.708661 0 -0.708661 
vn -0.259843 0 -0.968504 
vn -0.259843 0 -0.968504 
vn 0.259843 0 -0.968504 
vn 0.259843 0 -0.968504 
vn 0.708661 0 -0.708661 
vn 0.708661 0 -0.708661 
vn 0.708661 0 -0.708661 
vn -0.968504 0 -0.259843 
vn 0.708661 0 -0.708661 
vn -0.708661 0 0.708661 
vn 0.708661 0 -0.708661 
vn 0.259843 0 -0.968504 
vn 0.708661 0 -0.708661 
vn 0.346457 0 -0.937008 
vn -0.259843 0 -0.968504 
vn 0.346457 0 -0.937008 
vn 0.259843 0 -0.968504 
vn -0.346457 0 -0.937008 
vn -0.259843 0 -0.968504 
vn -0.346457 0 -0.937008 
vn -0.708661 0 -0.708661 
vn -0.708661 0 -0.708661 
vn -0.708661 0 -0.708661 
vn -0.708661 0 -0.708661 
vn -0.968504 0 -0.259843 
vn 0 0.80315 -0.598425 
vn 0 0.80315 -0.598425 
vn 0 0.417323 -0.905512 
vn 0 0.417323 -0.905512 
vn 0 -0.0472441 -1 
vn 0 -0.0472441 -1 
vn 0 -0.472441 -0.88189 
vn 0 -0.472441 -0.88189 
vn -0.968504 0 -0.259843 
vn -0.968504 0 -0.259843 
vn -0.708661 0 -0.708661 
vn -0.708661 0 -0.708661 
vn -0.259843 0 -0.968504 
vn -0.259843 0 -0.968504 
vn 0.259843 0 -0.968504 
vn 0.259843 0 -0.968504 
vn 0.708661 0 -0.708661 
vn 0.708661 0 -0.708661 
vn 0 -0.811024 -0.590551 
vn 0 -0.543307 -0.84252 
vn 0 -0.543307 -0.84252 
vn 0 -0.244094 -0.968504 
vn 0 -0.244094 -0.968504 
vn 0 -0.811024 -0.590551 
vn 0 -0.244094 -0.968504 
vn 0 -0.15748 -0.984252 
vn 0 -0.244094 -0.968504 
vn 0 -0.15748 -0.984252 
vn 0 -0.464567 -0.88189 
vn 0 -0.464567 -0.88189 
vn 0 -0.614173 -0.787402 
vn 0.84252 0.488189 -0.228346 
vn 0.614173 0.488189 -0.614173 
vn 0.614173 0.488189 -0.614173 
vn 0.228346 0.488189 -0.84252 
vn 0.228346 0.488189 -0.84252 
vn -0.228346 0.488189 -0.84252 
vn -0.228346 0.488189 -0.84252 
vn -0.614173 0.488189 -0.614173 
vn -0.614173 0.488189 -0.614173 

vt 2.80655 1.85973 
vt 2.84031 1.85973 
vt 2.81927 2.96767 
vt 2.82759 2.95818 
vt 2.82759 2.96767 
vt 2.81927 2.95818 
vt 2.83481 2.95818 
vt 2.81205 2.96767 
vt 2.81205 2.95818 
vt 2.82343 3.11209 
vt 2.83481 2.96767 
vt 2.8335 2.94483 
vt 2.82769 2.80792 
vt 2.82057 2.79877 
vt 2.82629 2.79877 
vt 2.83125 2.79877 
vt 2.81918 2.80792 
vt 2.83506 2.80792 
vt 2.81561 2.79877 
vt 2.81181 2.80792 
vt 2.80755 2.80792 
vt 2.81274 2.79877 
vt 2.83412 2.79877 
vt 3.01583 2.84519 
vt 3.02645 2.9083 
vt 3.00492 2.99088 
vt 2.95044 3.01659 
vt 2.91702 2.76446 
vt 2.89592 2.7204 
vt 2.93438 2.79053 
vt 2.94165 2.77053 
vt 2.95235 2.78771 
vt 2.93222 2.77206 
vt 2.91566 2.78768 
vt 2.97065 2.76892 
vt 2.94928 2.74826 
vt 2.99187 2.85111 
vt 2.92164 2.76941 
vt 3.01583 2.84519 
vt 3.00239 2.90856 
vt 3.02645 2.9083 
vt 3.01888 2.95406 
vt 2.9952 2.95305 
vt 3.00492 2.99088 
vt 2.98211 2.98863 
vt 2.96977 3.02213 
vt 2.95044 3.01659 
vt 2.91926 3.04664 
vt 2.91702 2.76446 
vt 2.88931 2.78167 
vt 2.88931 2.73973 
vt 2.89592 2.7204 
vt 2.90815 2.70472 
vt 2.69743 2.74826 
vt 2.70505 2.77053 
vt 2.67605 2.76892 
vt 2.69436 2.78771 
vt 2.71233 2.79053 
vt 2.65484 2.85111 
vt 2.71449 2.77206 
vt 2.63087 2.84519 
vt 2.73104 2.78768 
vt 2.72506 2.76941 
vt 2.64432 2.90856 
vt 2.62025 2.9083 
vt 2.62782 2.95406 
vt 2.6515 2.95305 
vt 2.64179 2.99088 
vt 2.66459 2.98863 
vt 2.67357 3.02213 
vt 2.69659 3.01659 
vt 2.72778 3.04664 
vt 2.72968 2.76446 
vt 2.7574 2.78167 
vt 2.7574 2.73973 
vt 2.75079 2.7204 
vt 2.73855 2.70472 
vt 2.93406 2.93454 
vt 2.83931 2.90394 
vt 2.95734 2.98132 
vt 2.87198 2.81389 
vt 2.89639 2.91535 
vt 2.85199 2.84033 
vt 2.86203 2.90614 
vt 2.83931 2.84478 
vt 2.83931 2.90394 
vt 2.93406 2.93454 
vt 2.88931 2.78167 
vt 2.91566 2.78768 
vt 2.93438 2.79053 
vt 2.99187 2.85111 
vt 2.95235 2.78771 
vt 3.00239 2.90856 
vt 2.95468 2.95654 
vt 2.9952 2.95305 
vt 2.98211 2.98863 
vt 2.95734 2.98132 
vt 2.95044 3.01659 
vt 2.71264 2.93454 
vt 2.77473 2.81389 
vt 2.75031 2.91535 
vt 2.79472 2.84033 
vt 2.78467 2.90614 
vt 2.80755 2.84478 
vt 2.80755 2.90394 
vt 2.7574 2.78167 
vt 2.73104 2.78768 
vt 2.71233 2.79053 
vt 2.65484 2.85111 
vt 2.69436 2.78771 
vt 2.64432 2.90856 
vt 2.69203 2.95654 
vt 2.6515 2.95305 
vt 2.66459 2.98863 
vt 2.68936 2.98132 
vt 2.69659 3.01659 
vt 2.81274 2.72849 
vt 2.81274 2.79877 
vt 2.81561 2.72849 
vt 2.81561 2.79877 
vt 2.83412 2.72849 
vt 2.82057 2.72849 
vt 2.82057 2.79877 
vt 2.82629 2.72849 
vt 2.83125 2.79877 
vt 2.82629 2.79877 
vt 2.83125 2.72849 
vt 2.84031 2.71708 
vt 2.83579 2.71708 
vt 2.83579 1.85973 
vt 2.80655 1.85973 
vt 2.82795 2.71708 
vt 2.80655 2.71708 
vt 2.82795 1.85973 
vt 2.81107 1.85973 
vt 2.81891 2.71708 
vt 2.81107 2.71708 
vt 2.81891 1.85973 
vt 2.82769 2.94483 
vt 2.81918 2.90394 
vt 2.82769 2.90394 
vt 2.81918 2.94483 
vt 2.81181 2.94483 
vt 2.83506 2.94483 
vt 2.81181 2.90394 
vt 2.81918 2.84478 
vt 2.80755 2.84478 
vt 2.80755 2.80792 
vt 2.81181 2.84478 
vt 2.81181 2.80792 
vt 2.81918 2.80792 
vt 2.82769 2.84478 
vt 2.82769 2.80792 
vt 2.83506 2.80792 
vt 2.83506 2.84478 
vt 2.83506 2.90394 
vt 2.83931 2.80792 
vt 2.83931 2.94483 
vt 2.83931 2.84478 
vt 2.81606 2.94483 
vt 2.81606 2.95818 
vt 2.82073 2.94483 
vt 2.8335 2.95818 
vt 2.82073 2.95818 
vt 2.8335 2.94483 
vt 2.82613 2.94483 
vt 2.8308 2.95818 
vt 2.82613 2.95818 
vt 2.8308 2.94483 
vt 2.82795 2.71708 
vt 2.82057 2.72849 
vt 2.81891 2.71708 
vt 2.82629 2.72849 
vt 2.81561 2.72849 
vt 2.83125 2.72849 
vt 2.81107 2.71708 
vt 2.83579 2.71708 
vt 2.80781 2.49 
vt 2.81197 2.47446 
vt 2.83473 2.47446 
vt 2.83889 2.49 
vt 2.82605 2.47576 
vt 2.82761 2.46995 
vt 2.83498 2.47421 
vt 2.83072 2.47846 
vt 2.82065 2.47576 
vt 2.83923 2.48158 
vt 2.8191 2.46995 
vt 2.83342 2.48314 
vt 2.81173 2.47421 
vt 2.83342 2.48853 
vt 2.81598 2.47846 
vt 2.83923 2.49009 
vt 2.80747 2.48158 
vt 2.83498 2.49746 
vt 2.81328 2.48314 
vt 2.83072 2.49321 
vt 2.81328 2.48853 
vt 2.82605 2.49591 
vt 2.80747 2.49009 
vt 2.82761 2.50172 
vt 2.81598 2.49321 
vt 2.82065 2.49591 
vt 2.81173 2.49746 
vt 2.8191 2.50172 
vt 2.82761 2.41287 
vt 2.82761 2.44723 
vt 2.8191 2.44723 
vt 2.8191 2.46995 
vt 2.82761 2.46995 
vt 2.8191 2.41287 
vt 2.82761 2.3752 
vt 2.8191 2.3752 
vt 2.82761 2.35459 
vt 2.8191 2.35459 
vt 2.82741 2.55896 
vt 2.8189 2.52459 
vt 2.82741 2.52459 
vt 2.8191 2.50172 
vt 2.82761 2.50172 
vt 2.8189 2.55896 
vt 2.82741 2.59663 
vt 2.8189 2.59663 
vt 2.83473 2.96767 
vt 2.83473 2.95818 
vt 2.82335 3.11209 
vt 2.82752 2.96767 
vt 2.82752 2.95818 
vt 2.81919 2.96767 
vt 2.81919 2.95818 
vt 2.81197 2.96767 
vt 2.81197 2.95818 
vt 2.80781 2.95818 
vt 2.83498 2.80792 
vt 2.83118 2.79877 
vt 2.83498 2.80792 
vt 2.82761 2.80792 
vt 2.82622 2.79877 
vt 2.82049 2.79877 
vt 2.8191 2.80792 
vt 2.81553 2.79877 
vt 2.81173 2.80792 
vt 2.81266 2.79877 
vt 2.81266 2.79877 
vt 2.81553 2.72849 
vt 2.81553 2.79877 
vt 2.81266 2.72849 
vt 2.82049 2.72849 
vt 2.82049 2.79877 
vt 2.82622 2.72849 
vt 2.82622 2.79877 
vt 2.83118 2.72849 
vt 2.83118 2.79877 
vt 2.80647 1.85973 
vt 2.81099 1.85973 
vt 2.81099 2.71708 
vt 2.81883 1.85973 
vt 2.81883 2.71708 
vt 2.82787 1.85973 
vt 2.82787 2.71708 
vt 2.83571 1.85973 
vt 2.84023 2.71708 
vt 2.83571 2.71708 
vt 2.83498 2.94483 
vt 2.83498 2.90394 
vt 2.82761 2.94483 
vt 2.82761 2.90394 
vt 2.8191 2.94483 
vt 2.8191 2.90394 
vt 2.82761 2.84478 
vt 2.81173 2.94483 
vt 2.81173 2.90394 
vt 2.80747 2.94483 
vt 2.8191 2.84478 
vt 2.82761 2.80792 
vt 2.83498 2.84478 
vt 2.83498 2.80792 
vt 2.8191 2.80792 
vt 2.83498 2.80792 
vt 2.81173 2.84478 
vt 2.81173 2.80792 
vt 2.8191 2.94483 
vt 2.8191 2.84478 
vt 2.8191 2.93454 
vt 2.82761 2.93454 
vt 2.8191 2.95654 
vt 2.82761 2.95654 
vt 2.82761 2.98132 
vt 2.8191 2.98132 
vt 2.8191 3.01659 
vt 2.82761 3.01659 
vt 2.81598 2.94483 
vt 2.81598 2.95818 
vt 2.82065 2.94483 
vt 2.82065 2.95818 
vt 2.82605 2.94483 
vt 2.82605 2.95818 
vt 2.83072 2.94483 
vt 2.83072 2.95818 
vt 2.82761 2.84033 
vt 2.8191 2.81389 
vt 2.82761 2.81389 
vt 2.8191 2.78167 
vt 2.82761 2.78167 
vt 2.8191 2.84033 
vt 2.8191 2.78167 
vt 2.82022 2.73973 
vt 2.82761 2.78167 
vt 2.82648 2.73973 
vt 2.82158 2.7204 
vt 2.82512 2.7204 
vt 2.82335 2.70472 
vt 2.84023 2.71708 
vt 2.83118 2.72849 
vt 2.83571 2.71708 
vt 2.82787 2.71708 
vt 2.82622 2.72849 
vt 2.82049 2.72849 
vt 2.81883 2.71708 
vt 2.81553 2.72849 
vt 2.81099 2.71708 
vt 2.84015 1.85973 
vt 2.80639 1.85973 
vt 2.82327 3.11209 
vt 2.8119 2.95818 
vt 2.83465 2.96767 
vt 2.83465 2.95818 
vt 2.8119 2.96767 
vt 2.81911 2.95818 
vt 2.82744 2.96767 
vt 2.82744 2.95818 
vt 2.81911 2.96767 
vt 2.8132 2.94483 
vt 2.81259 2.79877 
vt 2.81545 2.79877 
vt 2.81165 2.80792 
vt 2.8311 2.79877 
vt 2.81902 2.80792 
vt 2.8349 2.80792 
vt 2.82041 2.79877 
vt 2.82753 2.80792 
vt 2.82614 2.79877 
vt 2.69743 2.74826 
vt 2.70505 2.77053 
vt 2.67605 2.76892 
vt 2.69436 2.78771 
vt 2.71233 2.79053 
vt 2.65484 2.85111 
vt 2.71449 2.77206 
vt 2.63087 2.84519 
vt 2.73104 2.78768 
vt 2.72506 2.76941 
vt 2.64432 2.90856 
vt 2.62025 2.9083 
vt 2.62782 2.95406 
vt 2.6515 2.95305 
vt 2.64179 2.99088 
vt 2.66459 2.98863 
vt 2.67694 3.02213 
vt 2.69626 3.01659 
vt 2.72745 3.04664 
vt 2.72968 2.76446 
vt 2.7574 2.78167 
vt 2.7574 2.73973 
vt 2.75079 2.7204 
vt 2.73855 2.70472 
vt 2.69436 2.78771 
vt 2.97065 2.76892 
vt 2.95235 2.78771 
vt 3.01583 2.84519 
vt 3.02645 2.9083 
vt 2.97313 3.02213 
vt 2.95011 3.01659 
vt 2.88931 2.78167 
vt 2.89592 2.7204 
vt 2.93438 2.79053 
vt 2.94165 2.77053 
vt 2.95235 2.78771 
vt 2.93222 2.77206 
vt 2.91566 2.78768 
vt 2.97065 2.76892 
vt 2.94928 2.74826 
vt 2.99187 2.85111 
vt 2.92164 2.76941 
vt 3.01583 2.84519 
vt 3.00239 2.90856 
vt 3.02645 2.9083 
vt 3.01888 2.95406 
vt 2.9952 2.95305 
vt 3.00492 2.99088 
vt 2.98211 2.98863 
vt 2.97313 3.02213 
vt 2.95011 3.01659 
vt 2.91892 3.04664 
vt 2.91702 2.76446 
vt 2.88931 2.78167 
vt 2.88931 2.73973 
vt 2.89592 2.7204 
vt 2.90815 2.70472 
vt 2.71264 2.93454 
vt 2.77473 2.81389 
vt 2.75031 2.91535 
vt 2.79472 2.84033 
vt 2.78467 2.90614 
vt 2.80739 2.84478 
vt 2.80739 2.90394 
vt 2.7574 2.78167 
vt 2.73104 2.78768 
vt 2.71233 2.79053 
vt 2.65484 2.85111 
vt 2.69436 2.78771 
vt 2.64432 2.90856 
vt 2.69203 2.95654 
vt 2.6515 2.95305 
vt 2.66459 2.98863 
vt 2.68936 2.98132 
vt 2.69626 3.01659 
vt 2.87198 2.81389 
vt 2.89639 2.91535 
vt 2.95468 2.95654 
vt 2.87198 2.81389 
vt 2.89639 2.91535 
vt 2.85199 2.84033 
vt 2.86203 2.90614 
vt 2.83915 2.84478 
vt 2.83915 2.90394 
vt 2.93406 2.93454 
vt 2.88931 2.78167 
vt 2.91566 2.78768 
vt 2.93438 2.79053 
vt 2.99187 2.85111 
vt 2.95235 2.78771 
vt 3.00239 2.90856 
vt 2.95468 2.95654 
vt 2.9952 2.95305 
vt 2.98211 2.98863 
vt 2.95734 2.98132 
vt 2.95011 3.01659 
vt 2.82614 2.79877 
vt 2.8311 2.72849 
vt 2.8311 2.79877 
vt 2.82614 2.72849 
vt 2.82041 2.79877 
vt 2.82041 2.72849 
vt 2.81545 2.79877 
vt 2.81545 2.72849 
vt 2.81259 2.79877 
vt 2.81259 2.72849 
vt 2.81092 2.71708 
vt 2.81875 1.85973 
vt 2.81875 2.71708 
vt 2.81092 1.85973 
vt 2.8278 1.85973 
vt 2.80639 2.71708 
vt 2.8278 2.71708 
vt 2.83563 1.85973 
vt 2.83563 2.71708 
vt 2.84015 2.71708 
vt 2.84015 1.85973 
vt 2.84015 2.71708 
vt 2.83915 2.90394 
vt 2.8349 2.94483 
vt 2.8349 2.90394 
vt 2.82753 2.94483 
vt 2.83915 2.84478 
vt 2.82753 2.90394 
vt 2.81902 2.94483 
vt 2.8349 2.84478 
vt 2.8349 2.80792 
vt 2.82753 2.80792 
vt 2.80739 2.90394 
vt 2.80739 2.94483 
vt 2.80739 2.84478 
vt 2.81165 2.90394 
vt 2.81165 2.94483 
vt 2.81165 2.84478 
vt 2.81165 2.80792 
vt 2.81902 2.84478 
vt 2.81902 2.80792 
vt 2.81902 2.90394 
vt 2.82753 2.84478 
vt 2.82597 2.95818 
vt 2.83065 2.94483 
vt 2.83065 2.95818 
vt 2.82597 2.94483 
vt 2.83334 2.94483 
vt 2.82057 2.95818 
vt 2.82057 2.94483 
vt 2.8159 2.95818 
vt 2.8159 2.94483 
vt 2.84015 2.71708 
vt 2.81259 2.72849 
vt 2.8311 2.72849 
vt 2.83563 2.71708 
vt 2.81545 2.72849 
vt 2.81092 2.71708 
vt 2.81875 2.71708 
vt 2.8278 2.71708 
vt 2.82041 2.72849 
vt 2.82614 2.72849 
vt 2.80647 2.48131 
vt 2.84023 2.49036 
vt 2.81099 2.49819 
vt 2.80647 2.49036 
vt 2.83571 2.49819 
vt 2.81883 2.50272 
vt 2.82787 2.50272 
vt 2.84023 2.48131 
vt 2.81883 2.46895 
vt 2.81099 2.47348 
vt 2.83571 2.47348 
vt 2.82787 2.46895 
vt 2.83404 2.48297 
vt 2.83923 2.49009 
vt 2.83498 2.47421 
vt 2.82622 2.49652 
vt 2.82049 2.47515 
vt 2.80747 2.48158 
vt 2.81173 2.49746 
vt 2.81266 2.4887 
vt 2.8191 2.35882 
vt 2.82761 2.35882 
vt 2.82335 2.39001 
vt 2.82781 2.61267 
vt 2.8193 2.61267 
vt 2.82355 2.58149 
vt 2.81328 2.48314 
vt 2.83072 2.49321 
vt 2.82605 2.47576 
vt 2.82761 2.45728 
vt 2.8191 2.45728 
vt 2.8191 2.46995 
vt 2.82761 2.46995 
vt 2.8193 2.51455 
vt 2.82781 2.51455 
vt 2.82761 2.50172 
vt 2.8191 2.50172 
vt 2.83404 2.48297 
vt 2.82787 2.50272 
vt 2.81883 2.46895 
vt 2.83889 2.48167 
vt 2.83342 2.48853 
vt 2.83342 2.48314 
vt 2.83072 2.47846 
vt 2.83889 2.49 
vt 2.83473 2.47446 
vt 2.83072 2.49321 
vt 2.82752 2.47029 
vt 2.83473 2.49721 
vt 2.82605 2.47576 
vt 2.82605 2.49591 
vt 2.81919 2.47029 
vt 2.82752 2.50138 
vt 2.82065 2.47576 
vt 2.81919 2.50138 
vt 2.81598 2.47846 
vt 2.82065 2.49591 
vt 2.81197 2.47446 
vt 2.81197 2.49721 
vt 2.80781 2.48167 
vt 2.81598 2.49321 
vt 2.81328 2.48314 
vt 2.81328 2.48853 
vt 2.80781 2.49 
vt 2.81197 2.95818 
vt 2.82335 3.11209 
vt 2.81197 2.96767 
vt 2.81919 2.95818 
vt 2.81919 2.96767 
vt 2.82752 2.95818 
vt 2.82752 2.96767 
vt 2.83473 2.95818 
vt 2.83473 2.96767 
vt 2.81553 2.79877 
vt 2.81173 2.80792 
vt 2.8191 2.80792 
vt 2.82049 2.79877 
vt 2.82761 2.80792 
vt 2.82622 2.79877 
vt 2.83118 2.79877 
vt 2.83498 2.80792 
vt 2.83923 2.80792 
vt 2.83498 2.80792 
vt 2.83404 2.79877 
vt 2.83118 2.79877 
vt 2.83118 2.72849 
vt 2.82622 2.79877 
vt 2.82622 2.72849 
vt 2.82049 2.79877 
vt 2.82049 2.72849 
vt 2.81266 2.72849 
vt 2.81553 2.79877 
vt 2.81266 2.79877 
vt 2.81553 2.72849 
vt 2.83571 2.71708 
vt 2.83571 1.85973 
vt 2.82787 2.71708 
vt 2.82787 1.85973 
vt 2.81883 2.71708 
vt 2.81883 1.85973 
vt 2.81099 2.71708 
vt 2.81099 1.85973 
vt 2.81173 2.94483 
vt 2.83923 2.94483 
vt 2.81173 2.80792 
vt 2.83498 2.80792 
vt 2.81173 2.84478 
vt 2.8191 2.80792 
vt 2.81173 2.90394 
vt 2.8191 2.84478 
vt 2.82761 2.80792 
vt 2.8191 2.90394 
vt 2.8191 2.94483 
vt 2.82761 2.90394 
vt 2.82761 2.94483 
vt 2.82761 2.84478 
vt 2.83498 2.90394 
vt 2.83498 2.94483 
vt 2.83498 2.84478 
vt 2.83498 2.80792 
vt 2.83923 2.80792 
vt 2.82741 2.93454 
vt 2.8189 2.93454 
vt 2.82741 2.95654 
vt 2.8189 2.95654 
vt 2.82741 2.98132 
vt 2.8189 2.98132 
vt 2.8189 3.01659 
vt 2.82741 3.01659 
vt 2.83342 2.95818 
vt 2.83342 2.94483 
vt 2.83072 2.95818 
vt 2.83072 2.94483 
vt 2.82605 2.95818 
vt 2.82605 2.94483 
vt 2.82065 2.95818 
vt 2.82065 2.94483 
vt 2.81598 2.95818 
vt 2.81598 2.94483 
vt 2.82741 2.84033 
vt 2.8189 2.81389 
vt 2.82741 2.81389 
vt 2.8189 2.78167 
vt 2.82741 2.78167 
vt 2.8189 2.84033 
vt 2.8189 2.78167 
vt 2.82002 2.73973 
vt 2.82741 2.78167 
vt 2.82628 2.73973 
vt 2.82138 2.7204 
vt 2.82492 2.7204 
vt 2.82315 2.70472 
vt 2.81266 2.72849 
vt 2.81553 2.72849 
vt 2.81099 2.71708 
vt 2.81883 2.71708 
vt 2.82049 2.72849 
vt 2.82787 2.71708 
vt 2.82622 2.72849 
vt 2.83118 2.72849 
vt 2.83571 2.71708 

usemtl Battleaxe1Mtl

f 3/3/3 4/4/4 5/5/5 
f 4/4/4 3/3/3 6/6/6 
f 7/7/7 5/5/5 4/4/4 
f 8/8/8 6/6/6 3/3/3 
f 6/6/6 8/8/8 9/9/9 
f 5/5/5 10/10/10 3/3/3 
f 3/3/3 10/10/10 8/8/8 
f 5/5/5 7/7/7 11/11/11 
f 11/11/11 10/10/10 5/5/5 
f 13/13/13 14/14/14 15/15/15 
f 16/16/16 13/13/13 15/15/15 
f 14/14/14 13/13/13 17/17/17 
f 13/13/13 16/16/16 18/18/18 
f 17/17/17 19/19/19 14/14/14 
f 19/19/19 17/17/17 20/20/20 
f 30/30/30 31/31/31 32/32/32 
f 31/31/31 30/30/30 33/33/33 
f 30/30/30 34/34/34 33/33/33 
f 31/31/31 35/35/35 32/32/32 
f 35/35/35 31/31/31 36/36/36 
f 35/35/35 37/37/37 32/32/32 
f 34/34/34 38/38/38 33/33/33 
f 37/37/37 35/35/35 39/39/39 
f 39/39/39 40/40/40 37/37/37 
f 40/40/40 39/39/39 41/41/41 
f 42/42/42 40/40/40 41/41/41 
f 40/40/40 42/42/42 43/43/43 
f 44/44/44 43/43/43 42/42/42 
f 43/43/43 44/44/44 45/45/45 
f 46/46/46 45/45/45 44/44/44 
f 45/45/45 46/46/46 47/47/47 
f 48/48/48 47/47/47 46/46/46 
f 34/34/34 49/49/49 38/38/38 
f 49/49/49 34/34/34 50/50/50 
f 50/50/50 51/51/51 49/49/49 
f 52/52/52 49/49/49 51/51/51 
f 53/53/53 49/49/49 52/52/52 
f 54/54/54 55/55/55 56/56/56 
f 55/55/55 57/57/57 56/56/56 
f 55/55/55 58/58/58 57/57/57 
f 59/59/59 56/56/56 57/57/57 
f 58/58/58 55/55/55 60/60/60 
f 56/56/56 59/59/59 61/61/61 
f 60/60/60 62/62/62 58/58/58 
f 62/62/62 60/60/60 63/63/63 
f 64/64/64 61/61/61 59/59/59 
f 61/61/61 64/64/64 65/65/65 
f 66/66/66 65/65/65 64/64/64 
f 64/64/64 67/67/67 66/66/66 
f 68/68/68 66/66/66 67/67/67 
f 67/67/67 69/69/69 68/68/68 
f 70/70/70 68/68/68 69/69/69 
f 69/69/69 71/71/71 70/70/70 
f 72/72/72 70/70/70 71/71/71 
f 73/73/73 62/62/62 63/63/63 
f 62/62/62 73/73/73 74/74/74 
f 75/75/75 74/74/74 73/73/73 
f 76/76/76 75/75/75 73/73/73 
f 77/77/77 76/76/76 73/73/73 
f 81/81/81 82/82/82 83/83/83 
f 83/83/83 82/82/82 84/84/84 
f 84/84/84 85/85/85 83/83/83 
f 86/86/86 85/85/85 84/84/84 
f 82/82/82 81/81/81 87/87/87 
f 88/88/88 87/87/87 81/81/81 
f 89/89/89 87/87/87 88/88/88 
f 90/90/90 87/87/87 89/89/89 
f 87/87/87 90/90/90 91/91/91 
f 91/91/91 90/90/90 92/92/92 
f 93/93/93 87/87/87 91/91/91 
f 93/93/93 94/94/94 87/87/87 
f 94/94/94 93/93/93 95/95/95 
f 96/96/96 94/94/94 95/95/95 
f 94/94/94 96/96/96 97/97/97 
f 96/96/96 98/98/98 97/97/97 
f 99/99/99 100/100/100 101/101/101 
f 102/102/102 101/101/101 100/100/100 
f 101/101/101 102/102/102 103/103/103 
f 104/104/104 103/103/103 102/102/102 
f 103/103/103 104/104/104 105/105/105 
f 100/100/100 99/99/99 106/106/106 
f 99/99/99 107/107/107 106/106/106 
f 99/99/99 108/108/108 107/107/107 
f 108/108/108 99/99/99 109/109/109 
f 109/109/109 110/110/110 108/108/108 
f 109/109/109 99/99/99 111/111/111 
f 112/112/112 111/111/111 99/99/99 
f 111/111/111 112/112/112 113/113/113 
f 112/112/112 114/114/114 113/113/113 
f 114/114/114 112/112/112 115/115/115 
f 114/114/114 115/115/115 116/116/116 
f 122/122/122 120/120/120 119/119/119 
f 120/120/120 122/122/122 123/123/123 
f 124/124/124 123/123/123 122/122/122 
f 123/123/123 124/124/124 126/126/126 
f 127/127/127 126/126/126 124/124/124 
f 126/126/126 127/127/127 125/125/125 
f 132/132/132 130/130/130 129/129/129 
f 130/130/130 132/132/132 134/134/134 
f 136/136/136 134/134/134 132/132/132 
f 134/134/134 136/136/136 138/138/138 
f 138/138/138 137/137/137 135/135/135 
f 137/137/137 138/138/138 136/136/136 
f 139/139/139 140/140/140 141/141/141 
f 140/140/140 139/139/139 142/142/142 
f 143/143/143 140/140/140 142/142/142 
f 141/141/141 144/144/144 139/139/139 
f 140/140/140 143/143/143 145/145/145 
f 146/146/146 141/141/141 140/140/140 
f 145/145/145 146/146/146 140/140/140 
f 146/146/146 145/145/145 149/149/149 
f 151/151/151 149/149/149 150/150/150 
f 149/149/149 151/151/151 146/146/146 
f 151/151/151 152/152/152 146/146/146 
f 152/152/152 151/151/151 153/153/153 
f 141/141/141 146/146/146 152/152/152 
f 154/154/154 152/152/152 153/153/153 
f 152/152/152 154/154/154 155/155/155 
f 155/155/155 141/141/141 152/152/152 
f 141/141/141 155/155/155 156/156/156 
f 144/144/144 141/141/141 156/156/156 
f 162/162/162 161/161/161 160/160/160 
f 161/161/161 162/162/162 164/164/164 
f 166/166/166 164/164/164 162/162/162 
f 164/164/164 166/166/166 168/168/168 
f 169/169/169 168/168/168 166/166/166 
f 168/168/168 169/169/169 167/167/167 
f 170/170/170 171/171/171 172/172/172 
f 171/171/171 170/170/170 173/173/173 
f 174/174/174 172/172/172 171/171/171 
f 170/170/170 175/175/175 173/173/173 
f 172/172/172 174/174/174 176/176/176 
f 175/175/175 170/170/170 177/177/177 
f 182/182/182 183/183/183 184/184/184 
f 182/182/182 184/184/184 185/185/185 
f 186/186/186 183/183/183 182/182/182 
f 184/184/184 187/187/187 185/185/185 
f 183/183/183 186/186/186 188/188/188 
f 187/187/187 189/189/189 185/185/185 
f 186/186/186 190/190/190 188/188/188 
f 187/187/187 191/191/191 189/189/189 
f 190/190/190 186/186/186 192/192/192 
f 191/191/191 187/187/187 193/193/193 
f 192/192/192 194/194/194 190/190/190 
f 195/195/195 191/191/191 193/193/193 
f 194/194/194 192/192/192 196/196/196 
f 191/191/191 195/195/195 197/197/197 
f 198/198/198 194/194/194 196/196/196 
f 195/195/195 199/199/199 197/197/197 
f 198/198/198 200/200/200 194/194/194 
f 199/199/199 195/195/195 201/201/201 
f 202/202/202 200/200/200 198/198/198 
f 201/201/201 203/203/203 199/199/199 
f 200/200/200 202/202/202 204/204/204 
f 203/203/203 204/204/204 202/202/202 
f 203/203/203 201/201/201 205/205/205 
f 204/204/204 203/203/203 205/205/205 
f 206/206/206 207/207/207 208/208/208 
f 209/209/209 208/208/208 207/207/207 
f 207/207/207 210/210/210 209/209/209 
f 208/208/208 211/211/211 206/206/206 
f 212/212/212 206/206/206 211/211/211 
f 211/211/211 213/213/213 212/212/212 
f 216/216/216 217/217/217 218/218/218 
f 219/219/219 218/218/218 217/217/217 
f 218/218/218 219/219/219 220/220/220 
f 217/217/217 216/216/216 221/221/221 
f 222/222/222 221/221/221 216/216/216 
f 221/221/221 222/222/222 223/223/223 
f 227/227/227 225/225/225 224/224/224 
f 224/224/224 226/226/226 227/227/227 
f 225/225/225 227/227/227 228/228/228 
f 229/229/229 228/228/228 227/227/227 
f 227/227/227 226/226/226 229/229/229 
f 228/228/228 229/229/229 230/230/230 
f 231/231/231 230/230/230 229/229/229 
f 229/229/229 226/226/226 231/231/231 
f 230/230/230 231/231/231 232/232/232 
f 237/237/237 235/235/235 236/236/236 
f 235/235/235 237/237/237 238/238/238 
f 237/237/237 239/239/239 238/238/238 
f 239/239/239 237/237/237 240/240/240 
f 240/240/240 241/241/241 239/239/239 
f 241/241/241 240/240/240 242/242/242 
f 248/248/248 246/246/246 245/245/245 
f 246/246/246 248/248/248 249/249/249 
f 250/250/250 249/249/249 248/248/248 
f 249/249/249 250/250/250 251/251/251 
f 252/252/252 251/251/251 250/250/250 
f 251/251/251 252/252/252 253/253/253 
f 257/257/257 256/256/256 255/255/255 
f 256/256/256 257/257/257 258/258/258 
f 259/259/259 258/258/258 257/257/257 
f 258/258/258 259/259/259 260/260/260 
f 261/261/261 260/260/260 259/259/259 
f 260/260/260 261/261/261 263/263/263 
f 266/266/266 265/265/265 264/264/264 
f 265/265/265 266/266/266 267/267/267 
f 268/268/268 267/267/267 266/266/266 
f 267/267/267 268/268/268 269/269/269 
f 270/270/270 265/265/265 267/267/267 
f 271/271/271 269/269/269 268/268/268 
f 269/269/269 271/271/271 272/272/272 
f 272/272/272 274/274/274 269/269/269 
f 274/274/274 275/275/275 270/270/270 
f 265/265/265 270/270/270 276/276/276 
f 275/275/275 276/276/276 270/270/270 
f 276/276/276 275/275/275 277/277/277 
f 275/275/275 274/274/274 278/278/278 
f 280/280/280 278/278/278 274/274/274 
f 278/278/278 280/280/280 281/281/281 
f 274/274/274 272/272/272 280/280/280 
f 285/285/285 286/286/286 284/284/284 
f 286/286/286 285/285/285 287/287/287 
f 288/288/288 286/286/286 287/287/287 
f 286/286/286 288/288/288 289/289/289 
f 288/288/288 290/290/290 289/289/289 
f 290/290/290 288/288/288 291/291/291 
f 294/294/294 293/293/293 292/292/292 
f 293/293/293 294/294/294 295/295/295 
f 296/296/296 295/295/295 294/294/294 
f 295/295/295 296/296/296 297/297/297 
f 298/298/298 297/297/297 296/296/296 
f 297/297/297 298/298/298 299/299/299 
f 300/300/300 301/301/301 302/302/302 
f 303/303/303 302/302/302 301/301/301 
f 302/302/302 303/303/303 304/304/304 
f 301/301/301 300/300/300 305/305/305 
f 306/306/306 307/307/307 308/308/308 
f 308/308/308 307/307/307 309/309/309 
f 307/307/307 310/310/310 309/309/309 
f 309/309/309 310/310/310 311/311/311 
f 311/311/311 310/310/310 312/312/312 
f 314/314/314 316/316/316 315/315/315 
f 316/316/316 314/314/314 317/317/317 
f 318/318/318 316/316/316 317/317/317 
f 316/316/316 318/318/318 319/319/319 
f 320/320/320 319/319/319 318/318/318 
f 319/319/319 320/320/320 321/321/321 
f 329/329/329 328/328/328 325/325/325 
f 330/330/330 327/327/327 326/326/326 
f 326/326/326 324/324/324 330/330/330 
f 327/327/327 330/330/330 331/331/331 
f 332/332/332 324/324/324 328/328/328 
f 328/328/328 329/329/329 332/332/332 
f 330/330/330 324/324/324 332/332/332 
f 331/331/331 332/332/332 329/329/329 
f 332/332/332 331/331/331 330/330/330 
f 335/335/335 338/338/338 336/336/336 
f 338/338/338 335/335/335 340/340/340 
f 341/341/341 337/337/337 339/339/339 
f 340/340/340 341/341/341 338/338/338 
f 337/337/337 341/341/341 342/342/342 
f 341/341/341 340/340/340 342/342/342 
f 343/343/343 344/344/344 345/345/345 
f 344/344/344 346/346/346 345/345/345 
f 344/344/344 347/347/347 346/346/346 
f 348/348/348 345/345/345 346/346/346 
f 347/347/347 344/344/344 349/349/349 
f 345/345/345 348/348/348 350/350/350 
f 349/349/349 351/351/351 347/347/347 
f 351/351/351 349/349/349 352/352/352 
f 353/353/353 350/350/350 348/348/348 
f 350/350/350 353/353/353 354/354/354 
f 355/355/355 354/354/354 353/353/353 
f 353/353/353 356/356/356 355/355/355 
f 357/357/357 355/355/355 356/356/356 
f 356/356/356 358/358/358 357/357/357 
f 359/359/359 357/357/357 358/358/358 
f 358/358/358 360/360/360 359/359/359 
f 361/361/361 359/359/359 360/360/360 
f 362/362/362 351/351/351 352/352/352 
f 351/351/351 362/362/362 363/363/363 
f 364/364/364 363/363/363 362/362/362 
f 365/365/365 364/364/364 362/362/362 
f 366/366/366 365/365/365 362/362/362 
f 376/376/376 377/377/377 378/378/378 
f 377/377/377 376/376/376 379/379/379 
f 376/376/376 380/380/380 379/379/379 
f 377/377/377 381/381/381 378/378/378 
f 381/381/381 377/377/377 382/382/382 
f 381/381/381 383/383/383 378/378/378 
f 380/380/380 384/384/384 379/379/379 
f 383/383/383 381/381/381 385/385/385 
f 385/385/385 386/386/386 383/383/383 
f 386/386/386 385/385/385 387/387/387 
f 388/388/388 386/386/386 387/387/387 
f 386/386/386 388/388/388 389/389/389 
f 390/390/390 389/389/389 388/388/388 
f 389/389/389 390/390/390 391/391/391 
f 392/392/392 391/391/391 390/390/390 
f 391/391/391 392/392/392 393/393/393 
f 394/394/394 393/393/393 392/392/392 
f 380/380/380 395/395/395 384/384/384 
f 395/395/395 380/380/380 396/396/396 
f 396/396/396 397/397/397 395/395/395 
f 398/398/398 395/395/395 397/397/397 
f 399/399/399 395/395/395 398/398/398 
f 400/400/400 401/401/401 402/402/402 
f 403/403/403 402/402/402 401/401/401 
f 402/402/402 403/403/403 404/404/404 
f 405/405/405 404/404/404 403/403/403 
f 404/404/404 405/405/405 406/406/406 
f 401/401/401 400/400/400 407/407/407 
f 400/400/400 408/408/408 407/407/407 
f 400/400/400 409/409/409 408/408/408 
f 409/409/409 400/400/400 410/410/410 
f 410/410/410 411/411/411 409/409/409 
f 410/410/410 400/400/400 412/412/412 
f 413/413/413 412/412/412 400/400/400 
f 412/412/412 413/413/413 414/414/414 
f 413/413/413 415/415/415 414/414/414 
f 415/415/415 413/413/413 416/416/416 
f 415/415/415 416/416/416 417/417/417 
f 421/421/421 422/422/422 423/423/423 
f 423/423/423 422/422/422 424/424/424 
f 424/424/424 425/425/425 423/423/423 
f 426/426/426 425/425/425 424/424/424 
f 422/422/422 421/421/421 427/427/427 
f 428/428/428 427/427/427 421/421/421 
f 429/429/429 427/427/427 428/428/428 
f 430/430/430 427/427/427 429/429/429 
f 427/427/427 430/430/430 431/431/431 
f 431/431/431 430/430/430 432/432/432 
f 433/433/433 427/427/427 431/431/431 
f 433/433/433 434/434/434 427/427/427 
f 434/434/434 433/433/433 435/435/435 
f 436/436/436 434/434/434 435/435/435 
f 434/434/434 436/436/436 437/437/437 
f 436/436/436 438/438/438 437/437/437 
f 439/439/439 440/440/440 441/441/441 
f 440/440/440 439/439/439 442/442/442 
f 443/443/443 442/442/442 439/439/439 
f 442/442/442 443/443/443 444/444/444 
f 445/445/445 444/444/444 443/443/443 
f 444/444/444 445/445/445 446/446/446 
f 449/449/449 450/450/450 451/451/451 
f 450/450/450 449/449/449 452/452/452 
f 453/453/453 451/451/451 450/450/450 
f 451/451/451 453/453/453 455/455/455 
f 456/456/456 455/455/455 453/453/453 
f 455/455/455 456/456/456 457/457/457 
f 464/464/464 463/463/463 462/462/462 
f 463/463/463 464/464/464 466/466/466 
f 467/467/467 466/466/466 464/464/464 
f 468/468/468 470/470/470 469/469/469 
f 477/477/477 478/478/478 476/476/476 
f 478/478/478 474/474/474 476/476/476 
f 478/478/478 477/477/477 479/479/479 
f 470/470/470 478/478/478 479/479/479 
f 480/480/480 475/475/475 474/474/474 
f 474/474/474 478/478/478 480/480/480 
f 475/475/475 480/480/480 467/467/467 
f 466/466/466 467/467/467 480/480/480 
f 481/481/481 480/480/480 478/478/478 
f 480/480/480 481/481/481 466/466/466 
f 478/478/478 470/470/470 481/481/481 
f 481/481/481 463/463/463 466/466/466 
f 470/470/470 468/468/468 481/481/481 
f 463/463/463 481/481/481 468/468/468 
f 482/482/482 483/483/483 484/484/484 
f 483/483/483 482/482/482 485/485/485 
f 487/487/487 485/485/485 482/482/482 
f 485/485/485 487/487/487 488/488/488 
f 489/489/489 488/488/488 487/487/487 
f 488/488/488 489/489/489 490/490/490 
f 497/497/497 495/495/495 496/496/496 
f 493/493/493 498/498/498 494/494/494 
f 495/495/495 497/497/497 499/499/499 
f 498/498/498 499/499/499 497/497/497 
f 498/498/498 493/493/493 500/500/500 
f 499/499/499 498/498/498 500/500/500 
f 501/501/501 502/502/502 503/503/503 
f 501/501/501 503/503/503 504/504/504 
f 503/503/503 502/502/502 505/505/505 
f 503/503/503 505/505/505 506/506/506 
f 506/506/506 505/505/505 507/507/507 
f 502/502/502 501/501/501 508/508/508 
f 501/501/501 509/509/509 508/508/508 
f 509/509/509 501/501/501 510/510/510 
f 509/509/509 511/511/511 508/508/508 
f 511/511/511 509/509/509 512/512/512 
f 522/522/522 523/523/523 521/521/521 
f 525/525/525 526/526/526 524/524/524 
f 530/530/530 532/532/532 531/531/531 
f 532/532/532 530/530/530 533/533/533 
f 536/536/536 535/535/535 534/534/534 
f 537/537/537 536/536/536 534/534/534 
f 541/541/541 542/542/542 543/543/543 
f 544/544/544 541/541/541 543/543/543 
f 542/542/542 541/541/541 545/545/545 
f 544/544/544 546/546/546 541/541/541 
f 545/545/545 547/547/547 542/542/542 
f 544/544/544 548/548/548 546/546/546 
f 547/547/547 545/545/545 549/549/549 
f 548/548/548 544/544/544 550/550/550 
f 549/549/549 551/551/551 547/547/547 
f 550/550/550 552/552/552 548/548/548 
f 551/551/551 549/549/549 553/553/553 
f 552/552/552 550/550/550 554/554/554 
f 551/551/551 553/553/553 555/555/555 
f 556/556/556 552/552/552 554/554/554 
f 551/551/551 555/555/555 557/557/557 
f 558/558/558 552/552/552 556/556/556 
f 555/555/555 559/559/559 557/557/557 
f 556/556/556 560/560/560 558/558/558 
f 557/557/557 559/559/559 561/561/561 
f 560/560/560 556/556/556 562/562/562 
f 559/559/559 563/563/563 561/561/561 
f 560/560/560 562/562/562 563/563/563 
f 563/563/563 559/559/559 564/564/564 
f 560/560/560 563/563/563 564/564/564 
f 568/568/568 567/567/567 565/565/565 
f 567/567/567 568/568/568 569/569/569 
f 569/569/569 566/566/566 567/567/567 
f 570/570/570 569/569/569 568/568/568 
f 569/569/569 570/570/570 571/571/571 
f 571/571/571 566/566/566 569/569/569 
f 572/572/572 571/571/571 570/570/570 
f 571/571/571 572/572/572 573/573/573 
f 573/573/573 566/566/566 571/571/571 
f 574/574/574 576/576/576 575/575/575 
f 576/576/576 574/574/574 577/577/577 
f 577/577/577 578/578/578 576/576/576 
f 578/578/578 577/577/577 579/579/579 
f 580/580/580 578/578/578 579/579/579 
f 578/578/578 580/580/580 581/581/581 
f 587/587/587 586/586/586 585/585/585 
f 586/586/586 587/587/587 588/588/588 
f 589/589/589 588/588/588 587/587/587 
f 588/588/588 589/589/589 590/590/590 
f 592/592/592 590/590/590 589/589/589 
f 590/590/590 592/592/592 594/594/594 
f 597/597/597 596/596/596 595/595/595 
f 596/596/596 597/597/597 598/598/598 
f 599/599/599 598/598/598 597/597/597 
f 598/598/598 599/599/599 600/600/600 
f 601/601/601 600/600/600 599/599/599 
f 600/600/600 601/601/601 602/602/602 
f 608/608/608 607/607/607 605/605/605 
f 607/607/607 608/608/608 610/610/610 
f 610/610/610 609/609/609 607/607/607 
f 611/611/611 610/610/610 608/608/608 
f 612/612/612 603/603/603 609/609/609 
f 609/609/609 610/610/610 612/612/612 
f 603/603/603 612/612/612 613/613/613 
f 614/614/614 613/613/613 612/612/612 
f 613/613/613 614/614/614 615/615/615 
f 610/610/610 611/611/611 616/616/616 
f 617/617/617 615/615/615 614/614/614 
f 616/616/616 617/617/617 614/614/614 
f 615/615/615 617/617/617 618/618/618 
f 611/611/611 619/619/619 616/616/616 
f 617/617/617 616/616/616 619/619/619 
f 619/619/619 611/611/611 620/620/620 
f 624/624/624 623/623/623 622/622/622 
f 623/623/623 624/624/624 625/625/625 
f 626/626/626 625/625/625 624/624/624 
f 625/625/625 626/626/626 627/627/627 
f 626/626/626 628/628/628 627/627/627 
f 628/628/628 626/626/626 629/629/629 
f 634/634/634 633/633/633 632/632/632 
f 633/633/633 634/634/634 635/635/635 
f 636/636/636 635/635/635 634/634/634 
f 635/635/635 636/636/636 637/637/637 
f 638/638/638 637/637/637 636/636/636 
f 637/637/637 638/638/638 639/639/639 
f 640/640/640 641/641/641 642/642/642 
f 643/643/643 642/642/642 641/641/641 
f 642/642/642 643/643/643 644/644/644 
f 641/641/641 640/640/640 645/645/645 
f 646/646/646 647/647/647 648/648/648 
f 648/648/648 647/647/647 649/649/649 
f 647/647/647 650/650/650 649/649/649 
f 649/649/649 650/650/650 651/651/651 
f 651/651/651 650/650/650 652/652/652 
f 656/656/656 654/654/654 655/655/655 
f 654/654/654 656/656/656 657/657/657 
f 658/658/658 657/657/657 656/656/656 
f 657/657/657 658/658/658 659/659/659 
f 658/658/658 660/660/660 659/659/659 
f 660/660/660 658/658/658 661/661/661 

